<svg width="40" height="40" viewBox="0 0 40 40" fill="none" xmlns="http://www.w3.org/2000/svg">
<path d="M32.9037 2.34375C32.0502 2.34375 31.2501 2.57414 30.56 2.97437V1.17188C30.56 0.524687 30.0353 0 29.3881 0H10.6381C9.99086 0 9.46617 0.524687 9.46617 1.17188V2.98867C8.77063 2.57953 7.96133 2.34375 7.09766 2.34375C4.51297 2.34375 2.41016 4.44656 2.41016 7.03125C2.41016 9.00273 2.99437 10.9077 4.09961 12.5402C5.98117 15.3193 8.30141 16.0405 10.2213 16.8084C11.3284 19.5653 13.567 21.7502 16.3596 22.7846L15.4955 28.2812H15.3256C13.3871 28.2812 11.81 29.8584 11.81 31.7969V37.6562H10.6381C9.99094 37.6562 9.46625 38.1809 9.46625 38.8281C9.46625 39.4753 9.99094 40 10.6381 40H29.3881C30.0353 40 30.56 39.4753 30.56 38.8281C30.56 38.1809 30.0353 37.6562 29.3881 37.6562H28.2162V31.7969C28.2162 29.8584 26.6391 28.2812 24.7006 28.2812H24.5308L23.6667 22.7847C26.4634 21.7487 28.7045 19.5591 29.8099 16.7966C31.6236 16.0711 34.001 15.3478 35.9019 12.5402C37.0071 10.9077 37.5913 9.00266 37.5913 7.03125C37.5913 4.44656 35.4884 2.34375 32.9037 2.34375ZM9.4575 13.9787C6.60016 12.8357 4.75391 10.1087 4.75391 7.03125C4.75391 5.73891 5.80531 4.6875 7.09766 4.6875C8.39 4.6875 9.44141 5.73891 9.44141 7.03125C9.44141 7.11367 9.45008 7.19398 9.46625 7.27156V12.8906C9.46625 13.2673 9.48648 13.6392 9.52523 14.0058L9.4575 13.9787ZM25.8725 37.6562H14.1537V35.3125H25.8725V37.6562ZM24.7006 30.625C25.3468 30.625 25.8725 31.1507 25.8725 31.7969V32.9688H14.1537V31.7969C14.1537 31.1507 14.6795 30.625 15.3256 30.625C15.9614 30.625 23.2096 30.625 24.7006 30.625ZM17.868 28.2812L18.6434 23.3487C19.0919 23.4071 19.549 23.4375 20.0131 23.4375C20.4773 23.4375 20.9344 23.407 21.3828 23.3487L22.1583 28.2812H17.868ZM28.2162 12.8906C28.2162 17.4138 24.5363 21.0938 20.0131 21.0938C15.4899 21.0938 11.81 17.4138 11.81 12.8906V7.03125H28.2162V12.8906ZM28.2162 4.6875H11.81V2.34375H28.2162V4.6875ZM30.5438 13.9787L30.5022 13.9953C30.5402 13.6322 30.5599 13.2637 30.5599 12.8906V7.03125C30.56 5.73891 31.6114 4.6875 32.9037 4.6875C34.1961 4.6875 35.2475 5.73891 35.2475 7.03125C35.2475 10.1087 33.4012 12.8358 30.5438 13.9787Z" fill="#333333"/>
</svg>
