<svg width="16" height="16" viewBox="0 0 16 16" fill="none" xmlns="http://www.w3.org/2000/svg">
<path d="M11.4314 11.0669L10.9159 11.8402C10.813 11.9945 10.6769 12.1262 10.4976 12.1736C9.91011 12.3288 8.35055 12.3989 5.97615 10.0245C3.60176 7.65014 3.67184 6.09055 3.82706 5.50311C3.87445 5.32377 4.00614 5.18769 4.16048 5.08479L4.93373 4.5693C5.50943 4.18549 5.665 3.40767 5.2812 2.83196L3.82079 0.641351C3.48579 0.138854 2.83998 -0.0531271 2.28488 0.184771L1.62609 0.467112C1.12563 0.681595 0.717392 1.06652 0.473891 1.55353C0.270454 1.9604 0.112776 2.38886 0.0914125 2.84326C0.0240867 4.27524 0.338083 7.80321 4.26778 11.7329C8.19747 15.6626 11.7254 15.9766 13.1574 15.9092C13.6118 15.8879 14.0403 15.7302 14.4471 15.5268C14.9341 15.2833 15.3191 14.875 15.5335 14.3746L15.8159 13.7158C16.0538 13.1607 15.8618 12.5149 15.3593 12.1799L13.1687 10.7195C12.593 10.3357 11.8152 10.4912 11.4314 11.0669Z" fill="#898989"/>
</svg>
