<svg width="20" height="20" viewBox="0 0 20 20" fill="none" xmlns="http://www.w3.org/2000/svg">
<path fill-rule="evenodd" clip-rule="evenodd" d="M10.9747 18.5414C13.0904 17.0977 17.9173 13.3049 17.9173 8.75001C17.9173 4.37776 14.3729 0.833344 10.0007 0.833344C5.6284 0.833344 2.08398 4.37776 2.08398 8.75001C2.08398 13.3049 6.9109 17.0977 9.02661 18.5414C9.61824 18.9451 10.3831 18.9451 10.9747 18.5414ZM10.0007 11.25C11.3814 11.25 12.5007 10.1307 12.5007 8.75001C12.5007 7.3693 11.3814 6.25001 10.0007 6.25001C8.61994 6.25001 7.50065 7.3693 7.50065 8.75001C7.50065 10.1307 8.61994 11.25 10.0007 11.25Z" fill="#898989"/>
</svg>
