<svg width="24" height="18" viewBox="0 0 24 18" fill="none" xmlns="http://www.w3.org/2000/svg">
<path d="M21.2727 11.4545V13.0909H19.6364V11.4545H21.2727ZM19.0909 6H17.4545V5.45455C17.4545 4.58656 17.7993 3.75413 18.4131 3.14038C19.0269 2.52662 19.8593 2.18182 20.7273 2.18182C21.5953 2.18182 22.4277 2.52662 23.0414 3.14038C23.6552 3.75413 24 4.58656 24 5.45455C24 6.51273 23.4545 7.50545 22.5927 8.08364L22.2655 8.29091C21.6436 8.72727 21.2727 9.39273 21.2727 10.1455V10.3636H19.6364V10.1455C19.6364 8.84727 20.2909 7.63636 21.3709 6.92727L21.6873 6.72C22.1127 6.43636 22.3636 5.96727 22.3636 5.45455C22.3636 5.02056 22.1912 4.60434 21.8844 4.29746C21.5775 3.99058 21.1613 3.81818 20.7273 3.81818C20.2933 3.81818 19.8771 3.99058 19.5702 4.29746C19.2633 4.60434 19.0909 5.02056 19.0909 5.45455V6ZM8.72727 9.81818C11.64 9.81818 17.4545 11.28 17.4545 14.1818V17.4545H0V14.1818C0 11.28 5.81455 9.81818 8.72727 9.81818ZM8.72727 0C9.88458 0 10.9945 0.459739 11.8128 1.27808C12.6312 2.09642 13.0909 3.20633 13.0909 4.36364C13.0909 5.52095 12.6312 6.63085 11.8128 7.44919C10.9945 8.26753 9.88458 8.72727 8.72727 8.72727C7.56996 8.72727 6.46006 8.26753 5.64172 7.44919C4.82338 6.63085 4.36364 5.52095 4.36364 4.36364C4.36364 3.20633 4.82338 2.09642 5.64172 1.27808C6.46006 0.459739 7.56996 0 8.72727 0ZM8.72727 11.8909C5.48727 11.8909 2.07273 13.4836 2.07273 14.1818V15.3818H15.3818V14.1818C15.3818 13.4836 11.9673 11.8909 8.72727 11.8909ZM8.72727 2.07273C8.11969 2.07273 7.53698 2.31409 7.10736 2.74372C6.67773 3.17335 6.43636 3.75605 6.43636 4.36364C6.43636 4.97122 6.67773 5.55393 7.10736 5.98355C7.53698 6.41318 8.11969 6.65455 8.72727 6.65455C9.33486 6.65455 9.91756 6.41318 10.3472 5.98355C10.7768 5.55393 11.0182 4.97122 11.0182 4.36364C11.0182 3.75605 10.7768 3.17335 10.3472 2.74372C9.91756 2.31409 9.33486 2.07273 8.72727 2.07273Z" fill="#898989"/>
</svg>
